<?xml version="1.0" standalone="no"?>
<!DOCTYPE svg PUBLIC "-//W3C//DTD SVG 20010904//EN"
 "http://www.w3.org/TR/2001/REC-SVG-20010904/DTD/svg10.dtd">
<svg version="1.0" xmlns="http://www.w3.org/2000/svg"
 width="512.000000pt" height="512.000000pt" viewBox="0 0 512.000000 512.000000"
 preserveAspectRatio="xMidYMid meet">
<metadata>
Created by potrace 1.14, written by Peter Selinger 2001-2017
</metadata>
<g transform="translate(0.000000,512.000000) scale(0.100000,-0.100000)"
fill="#000000" stroke="none">
<path d="M1729 5027 c-48 -50 -111 -117 -140 -148 -30 -31 -115 -120 -189
-199 -74 -78 -153 -162 -175 -185 -22 -23 -112 -118 -200 -211 -88 -93 -196
-207 -240 -253 -44 -46 -89 -93 -100 -105 -11 -12 -59 -63 -108 -114 l-87 -91
0 -1861 0 -1860 2070 0 2070 0 0 2560 0 2560 -1407 0 -1408 0 -86 -93z m2581
-2467 l0 -2240 -1750 0 -1750 0 0 1635 0 1635 605 0 605 0 0 605 0 605 1145 0
1145 0 0 -2240z m-2613 1353 c-2 -2 -133 -2 -291 -1 l-288 3 21 24 c22 26 257
273 425 448 55 57 106 113 115 126 15 20 16 -2 19 -287 1 -170 1 -311 -1 -313z"/>
<path d="M2882 3455 c-64 -28 -60 -17 -194 -455 -33 -107 -66 -215 -73 -240
-7 -25 -39 -128 -70 -230 -79 -258 -95 -311 -105 -345 -5 -16 -43 -140 -85
-275 -42 -135 -78 -252 -80 -260 -2 -8 -15 -51 -29 -95 -44 -141 -107 -350
-111 -365 -2 -8 -20 -66 -40 -129 -48 -154 -50 -176 -20 -227 51 -86 183 -84
229 3 12 25 146 455 331 1063 29 96 72 236 95 310 23 74 49 158 57 185 8 28
35 115 60 195 24 80 66 217 93 305 27 88 67 219 88 290 22 72 38 143 37 159
-10 87 -105 144 -183 111z"/>
<path d="M1850 2957 c-42 -8 -69 -32 -403 -365 -209 -208 -367 -374 -379 -397
-27 -51 -27 -129 0 -181 29 -56 687 -709 734 -729 159 -66 320 80 271 247 -12
42 -43 77 -273 307 -143 144 -260 264 -260 267 0 4 121 127 269 275 285 286
299 304 295 391 -5 125 -123 211 -254 185z"/>
<path d="M3178 2960 c-51 -9 -110 -52 -138 -102 -28 -50 -32 -137 -8 -183 9
-17 138 -152 286 -300 l269 -270 -257 -257 c-154 -153 -264 -272 -275 -295
-58 -121 26 -266 160 -280 102 -11 106 -8 482 369 187 189 348 358 357 376 26
52 26 120 0 172 -15 31 -133 155 -371 392 -389 388 -399 396 -505 378z"/>
</g>
</svg>
